<?xml version="1.0" encoding="UTF-8" standalone="no"?>
<!-- Created with Inkscape (http://www.inkscape.org/) -->

<svg
   xmlns:dc="http://purl.org/dc/elements/1.1/"
   xmlns:cc="http://creativecommons.org/ns#"
   xmlns:rdf="http://www.w3.org/1999/02/22-rdf-syntax-ns#"
   xmlns:svg="http://www.w3.org/2000/svg"
   xmlns="http://www.w3.org/2000/svg"
   xmlns:sodipodi="http://sodipodi.sourceforge.net/DTD/sodipodi-0.dtd"
   xmlns:inkscape="http://www.inkscape.org/namespaces/inkscape"
   version="1.1"
   id="svg3473"
   xml:space="preserve"
   width="278.78665"
   height="280.37387"
   viewBox="0 0 278.78665 280.37387"
   sodipodi:docname="tokenmill-logo.svg"
   inkscape:version="0.92.4 5da689c313, 2019-01-14"><metadata
     id="metadata3479"><rdf:RDF><cc:Work
         rdf:about=""><dc:format>image/svg+xml</dc:format><dc:type
           rdf:resource="http://purl.org/dc/dcmitype/StillImage" /><dc:title></dc:title></cc:Work></rdf:RDF></metadata><defs
     id="defs3477" /><sodipodi:namedview
     pagecolor="#ffffff"
     bordercolor="#666666"
     borderopacity="1"
     objecttolerance="10"
     gridtolerance="10"
     guidetolerance="10"
     inkscape:pageopacity="0"
     inkscape:pageshadow="2"
     inkscape:window-width="1920"
     inkscape:window-height="1080"
     id="namedview3475"
     showgrid="false"
     fit-margin-top="0"
     fit-margin-left="0"
     fit-margin-right="0"
     fit-margin-bottom="0"
     inkscape:zoom="1.093603"
     inkscape:cx="385.82913"
     inkscape:cy="128.81489"
     inkscape:window-x="0"
     inkscape:window-y="0"
     inkscape:window-maximized="0"
     inkscape:current-layer="g3481" /><g
     id="g3481"
     inkscape:groupmode="layer"
     inkscape:label="ink_ext_XXXXXX"
     transform="matrix(1.3333333,0,0,-1.3333333,-257.45733,537.03742)"><path
       inkscape:connector-curvature="0"
       id="path3499"
       style="fill:#ccff66;fill-opacity:1;fill-rule:evenodd;stroke:none;stroke-width:0.1"
       d="m 281.869,284.249 v 24.318 H 402.183 V 284.249 H 281.869" /><path
       inkscape:connector-curvature="0"
       id="path3501"
       style="fill:#000000;fill-opacity:1;fill-rule:nonzero;stroke:none;stroke-width:0.1"
       d="m 300.212,301.022 h -4.109 v -10.658 h -1.652 v 10.658 h -4.109 v 1.468 h 9.87 z m 12.694,-4.586 c 0,-1.871 -0.513,-3.388 -1.541,-4.55 -1.076,-1.222 -2.537,-1.834 -4.384,-1.834 -1.835,0 -3.29,0.612 -4.366,1.834 -1.015,1.175 -1.522,2.692 -1.522,4.55 0,1.859 0.513,3.37 1.54,4.531 1.077,1.223 2.532,1.835 4.367,1.835 1.847,0 3.302,-0.606 4.365,-1.816 1.028,-1.162 1.541,-2.679 1.541,-4.55 z m -1.706,-0.018 c 0,1.406 -0.348,2.556 -1.046,3.449 -0.758,0.99 -1.815,1.486 -3.173,1.486 -1.333,0 -2.378,-0.496 -3.136,-1.486 -0.699,-0.906 -1.046,-2.049 -1.046,-3.431 0,-1.395 0.342,-2.544 1.027,-3.449 0.771,-0.99 1.828,-1.487 3.174,-1.487 1.357,0 2.415,0.497 3.173,1.487 0.685,0.892 1.027,2.036 1.027,3.431 z m 13.576,-6.054 h -2.146 l -4.275,6.109 -1.853,-1.853 v -4.256 h -1.669 v 12.126 h 1.669 v -5.87 l 5.852,5.87 h 2.147 l -4.917,-4.898 z m 2.788,5.595 c 0,-3.058 1.266,-4.586 3.797,-4.586 0.832,0 1.573,0.202 2.221,0.605 0.696,0.452 1.131,1.07 1.302,1.854 h 1.688 c -0.172,-0.686 -0.532,-1.371 -1.083,-2.056 -0.941,-1.174 -2.304,-1.761 -4.091,-1.761 -1.859,0 -3.283,0.581 -4.274,1.743 -0.93,1.088 -1.395,2.586 -1.395,4.494 0,1.933 0.484,3.486 1.45,4.66 1.04,1.26 2.508,1.89 4.403,1.89 1.834,0 3.191,-0.716 4.072,-2.147 0.71,-1.149 1.077,-2.715 1.101,-4.696 z m 3.872,5.43 c -1.187,0 -2.128,-0.4 -2.826,-1.202 -0.697,-0.801 -1.046,-1.8 -1.046,-2.999 h 7.449 c 0,1.272 -0.27,2.269 -0.808,2.991 -0.623,0.807 -1.547,1.21 -2.769,1.21 z m 15.923,-11.025 v 7.797 c 0,2.152 -0.96,3.228 -2.88,3.228 -1.088,0 -1.969,-0.415 -2.642,-1.247 -0.649,-0.771 -0.973,-1.706 -0.973,-2.807 v -6.971 h -1.669 v 12.071 h 1.56 v -2.055 c 0.501,0.845 1.082,1.459 1.742,1.844 0.661,0.385 1.486,0.578 2.477,0.578 1.223,0 2.208,-0.337 2.954,-1.009 0.746,-0.672 1.119,-1.614 1.119,-2.825 v -8.604 z m 20.063,0 v 8.145 c 0,1.92 -0.826,2.88 -2.478,2.88 -0.978,0 -1.76,-0.361 -2.347,-1.082 -0.563,-0.673 -0.844,-1.507 -0.844,-2.495 v -7.448 h -1.651 v 8.714 c 0,0.685 -0.204,1.236 -0.606,1.651 -0.402,0.415 -0.941,0.624 -1.614,0.624 -1.052,0 -1.902,-0.417 -2.55,-1.248 -0.6,-0.783 -0.899,-1.708 -0.899,-2.77 v -6.971 h -1.651 v 12.071 h 1.523 v -1.89 c 0.928,1.505 2.262,2.257 3.999,2.257 1.578,0 2.666,-0.722 3.265,-2.165 0.93,1.443 2.128,2.165 3.596,2.165 1.26,0 2.232,-0.386 2.917,-1.156 0.648,-0.746 0.972,-1.757 0.972,-3.027 v -8.255 z m 6.31,0 h -1.651 v 12.126 h 1.651 z m 10.585,0 h -7.815 v 12.126 h 1.67 v -10.658 h 6.145 z m 9.393,0 h -7.815 v 12.126 h 1.669 v -10.658 h 6.146 v -1.468" /><path
       inkscape:connector-curvature="0"
       id="path3503"
       style="fill:#808080;fill-opacity:1;fill-rule:nonzero;stroke:none;stroke-width:0.1"
       d="m 263.024,207.119 c -0.288,-0.86 -0.435,-1.65 -0.437,-2.363 -0.007,-0.717 0.104,-1.352 0.336,-1.908 0.228,-0.554 0.568,-1.024 1.01,-1.409 0.445,-0.382 0.972,-0.68 1.586,-0.886 0.614,-0.205 1.213,-0.285 1.799,-0.249 0.584,0.041 1.136,0.214 1.655,0.518 0.515,0.305 0.988,0.745 1.418,1.32 0.427,0.57 0.785,1.29 1.072,2.149 0.288,0.86 0.437,1.649 0.441,2.366 0.002,0.714 -0.111,1.349 -0.34,1.9 -0.232,0.552 -0.569,1.022 -1.01,1.406 -0.444,0.39 -0.971,0.688 -1.584,0.893 -0.614,0.205 -1.214,0.285 -1.802,0.242 -0.584,-0.042 -1.139,-0.213 -1.653,-0.515 -0.518,-0.3 -0.991,-0.739 -1.415,-1.312 -0.43,-0.574 -0.787,-1.293 -1.076,-2.152 z m -27.485,109.568 -3.526,3.783 0.548,2.003 4.864,-5.342 3.969,-1.085 -0.493,-1.805 -3.97,1.085 -6.905,-2.124 0.547,2.001 4.96,1.462 z m -26.742,-36.171 -1.744,8.16 2.546,0.544 2.394,-11.201 -16.601,-3.548 -2.299,10.756 2.545,0.545 1.649,-7.716 4.29,0.917 -1.415,6.623 2.545,0.544 1.415,-6.623 z m 81.294,53.756 c -0.31,-0.063 -0.595,-0.09 -0.855,-0.08 -0.26,0.011 -0.494,0.053 -0.706,0.129 -0.212,0.075 -0.402,0.181 -0.568,0.317 -0.166,0.136 -0.309,0.3 -0.431,0.491 -0.098,0.151 -0.182,0.325 -0.25,0.519 -0.069,0.195 -0.129,0.416 -0.178,0.664 l -0.708,3.485 1.084,0.22 0.687,-3.387 c 0.085,-0.42 0.201,-0.736 0.349,-0.952 0.167,-0.239 0.368,-0.395 0.608,-0.468 0.237,-0.073 0.502,-0.08 0.795,-0.021 0.292,0.06 0.533,0.169 0.725,0.33 0.191,0.16 0.315,0.383 0.376,0.667 0.051,0.257 0.035,0.593 -0.05,1.013 l -0.688,3.386 1.084,0.221 0.707,-3.485 c 0.051,-0.248 0.082,-0.474 0.095,-0.68 0.013,-0.206 0.004,-0.398 -0.028,-0.577 -0.038,-0.223 -0.107,-0.43 -0.207,-0.62 -0.101,-0.19 -0.238,-0.362 -0.408,-0.515 -0.17,-0.154 -0.374,-0.285 -0.612,-0.396 -0.238,-0.112 -0.512,-0.198 -0.821,-0.261 z m 27.595,-2.339 c 0.094,0.128 0.138,0.253 0.135,0.379 -0.006,0.125 -0.042,0.253 -0.113,0.382 -0.071,0.13 -0.162,0.259 -0.273,0.389 -0.111,0.129 -0.229,0.264 -0.354,0.404 -0.165,0.187 -0.314,0.374 -0.449,0.564 -0.134,0.189 -0.231,0.388 -0.289,0.591 -0.058,0.203 -0.069,0.415 -0.031,0.634 0.039,0.219 0.145,0.45 0.322,0.69 0.196,0.266 0.412,0.463 0.65,0.591 0.237,0.128 0.484,0.198 0.737,0.211 0.254,0.01 0.514,-0.03 0.774,-0.125 0.262,-0.094 0.526,-0.239 0.794,-0.437 0.268,-0.197 0.518,-0.421 0.75,-0.672 0.231,-0.253 0.415,-0.493 0.549,-0.719 l -0.582,-0.789 c -0.185,0.294 -0.38,0.553 -0.584,0.776 -0.205,0.223 -0.413,0.411 -0.622,0.567 -0.304,0.222 -0.579,0.339 -0.823,0.35 -0.246,0.01 -0.45,-0.095 -0.613,-0.316 -0.094,-0.128 -0.144,-0.252 -0.151,-0.374 -0.006,-0.122 0.015,-0.245 0.068,-0.367 0.053,-0.122 0.128,-0.243 0.225,-0.365 0.095,-0.121 0.201,-0.246 0.316,-0.372 0.181,-0.202 0.345,-0.405 0.495,-0.607 0.151,-0.201 0.264,-0.409 0.336,-0.627 0.072,-0.215 0.092,-0.44 0.055,-0.673 -0.037,-0.234 -0.154,-0.483 -0.347,-0.747 -0.2,-0.271 -0.422,-0.467 -0.668,-0.592 -0.247,-0.122 -0.508,-0.181 -0.789,-0.175 -0.277,0.006 -0.572,0.076 -0.882,0.207 -0.309,0.13 -0.621,0.312 -0.933,0.543 -0.274,0.201 -0.522,0.426 -0.746,0.675 -0.225,0.248 -0.39,0.486 -0.493,0.713 l 0.574,0.777 c 0.168,-0.291 0.352,-0.547 0.551,-0.769 0.201,-0.222 0.424,-0.425 0.676,-0.611 0.145,-0.107 0.296,-0.2 0.454,-0.279 0.158,-0.079 0.314,-0.132 0.468,-0.157 0.154,-0.024 0.302,-0.012 0.441,0.038 0.141,0.049 0.265,0.147 0.372,0.292 z m 7.249,20.049 4.505,1.665 -0.059,4.546 2.027,-1.406 -0.084,-2.496 2.366,0.915 1.952,-1.354 -4.19,-1.496 0.031,-4.915 -2.038,1.413 0.072,2.831 -2.638,-1.052 z m -87.432,31.577 0.83,-1.076 0.443,-12.536 5.858,4.515 1.278,-1.657 -8.492,-6.547 -0.823,1.068 -0.442,12.551 -5.648,-4.354 -1.278,1.658 z m 38.903,-51.367 c -0.21,0.318 -0.434,0.572 -0.671,0.757 -0.235,0.188 -0.475,0.316 -0.719,0.383 -0.244,0.067 -0.488,0.077 -0.73,0.03 -0.242,-0.049 -0.477,-0.147 -0.704,-0.297 -0.228,-0.15 -0.41,-0.329 -0.549,-0.533 -0.138,-0.204 -0.223,-0.432 -0.257,-0.683 -0.033,-0.25 -0.009,-0.521 0.07,-0.812 0.079,-0.29 0.225,-0.595 0.435,-0.913 0.211,-0.318 0.435,-0.572 0.672,-0.759 0.236,-0.186 0.476,-0.313 0.718,-0.38 0.244,-0.066 0.487,-0.075 0.728,-0.028 0.245,0.045 0.48,0.144 0.707,0.294 0.227,0.15 0.409,0.329 0.547,0.535 0.138,0.204 0.225,0.433 0.258,0.682 0.034,0.25 0.011,0.52 -0.069,0.81 -0.08,0.291 -0.225,0.596 -0.436,0.914 z m 1.396,-1.88 c 0.053,0.062 0.117,0.128 0.189,0.198 0.074,0.072 0.152,0.143 0.236,0.212 0.082,0.069 0.168,0.138 0.253,0.202 0.088,0.066 0.173,0.126 0.26,0.183 l 0.074,0.05 0.553,-0.833 c -0.148,-0.079 -0.322,-0.18 -0.522,-0.302 -0.201,-0.122 -0.411,-0.255 -0.631,-0.399 -0.164,-0.11 -0.31,-0.212 -0.434,-0.306 -0.126,-0.094 -0.251,-0.189 -0.378,-0.286 -0.124,-0.096 -0.256,-0.195 -0.393,-0.297 -0.137,-0.102 -0.274,-0.198 -0.409,-0.288 -0.411,-0.271 -0.816,-0.446 -1.215,-0.522 -0.398,-0.077 -0.785,-0.068 -1.156,0.029 -0.372,0.096 -0.721,0.272 -1.049,0.529 -0.328,0.258 -0.624,0.587 -0.889,0.986 -0.265,0.4 -0.45,0.803 -0.557,1.211 -0.107,0.408 -0.13,0.804 -0.072,1.189 0.06,0.385 0.205,0.748 0.433,1.091 0.229,0.342 0.546,0.648 0.951,0.916 0.404,0.268 0.809,0.439 1.214,0.517 0.405,0.076 0.797,0.068 1.171,-0.024 0.375,-0.094 0.728,-0.266 1.059,-0.52 0.33,-0.252 0.623,-0.573 0.881,-0.962 0.134,-0.203 0.247,-0.414 0.335,-0.634 0.089,-0.219 0.151,-0.435 0.187,-0.652 0.036,-0.216 0.045,-0.435 0.029,-0.653 -0.016,-0.22 -0.061,-0.428 -0.136,-0.628 z m 26.565,8.955 0.803,0.355 0.835,0.156 0.149,-0.877 -0.834,-0.151 -0.882,0.071 -0.008,-0.024 0.586,-0.655 0.42,-0.809 -0.789,-0.414 -0.415,0.811 -0.198,0.861 -0.033,0.005 -0.441,-0.765 -0.635,-0.654 -0.632,0.626 0.638,0.65 0.752,0.456 -10e-4,0.025 -0.865,0.191 -0.754,0.388 0.4,0.794 0.753,-0.393 0.664,-0.574 0.02,0.016 -0.086,0.877 0.132,0.883 0.877,-0.132 -0.132,-0.882 -0.338,-0.813 z m 26.712,-17.191 c -0.354,-0.246 -0.706,-0.429 -1.056,-0.551 -0.347,-0.123 -0.688,-0.195 -1.023,-0.217 -0.021,-0.228 -0.039,-0.443 -0.061,-0.646 -0.021,-0.202 -0.037,-0.382 -0.053,-0.541 -0.014,-0.159 -0.028,-0.289 -0.036,-0.39 -0.011,-0.101 -0.017,-0.163 -0.018,-0.186 l -1.03,1.207 c 0.016,0.086 0.031,0.177 0.045,0.275 0.013,0.097 0.03,0.226 0.049,0.387 -0.356,0.095 -0.686,0.24 -0.99,0.439 -0.302,0.198 -0.569,0.434 -0.801,0.704 -0.187,0.22 -0.327,0.445 -0.421,0.677 -0.094,0.234 -0.14,0.462 -0.14,0.684 0.001,0.224 0.051,0.439 0.147,0.644 0.097,0.207 0.243,0.393 0.436,0.558 0.164,0.139 0.334,0.241 0.51,0.302 0.176,0.062 0.354,0.096 0.534,0.103 0.18,0.006 0.36,-0.01 0.544,-0.048 0.182,-0.038 0.362,-0.086 0.539,-0.145 0.012,0.167 0.027,0.326 0.05,0.477 0.021,0.153 0.056,0.299 0.102,0.438 0.047,0.138 0.11,0.268 0.187,0.391 0.079,0.122 0.18,0.236 0.304,0.342 0.18,0.154 0.37,0.261 0.568,0.318 0.198,0.058 0.398,0.068 0.602,0.032 0.204,-0.036 0.407,-0.119 0.608,-0.248 0.203,-0.13 0.396,-0.306 0.586,-0.528 0.189,-0.222 0.336,-0.44 0.438,-0.657 0.104,-0.217 0.158,-0.426 0.17,-0.63 0.011,-0.203 -0.025,-0.396 -0.107,-0.582 -0.081,-0.186 -0.214,-0.356 -0.399,-0.514 -0.162,-0.138 -0.329,-0.236 -0.502,-0.298 -0.172,-0.06 -0.345,-0.093 -0.525,-0.096 -0.177,-0.005 -0.357,0.013 -0.538,0.052 -0.182,0.039 -0.361,0.086 -0.542,0.142 -0.02,-0.219 -0.042,-0.469 -0.069,-0.75 -0.027,-0.282 -0.055,-0.58 -0.083,-0.893 0.205,0.04 0.414,0.105 0.627,0.198 0.212,0.093 0.427,0.219 0.644,0.375 z m -4.215,0.994 c 0.14,-0.164 0.307,-0.306 0.498,-0.43 0.192,-0.123 0.403,-0.214 0.635,-0.274 0.017,0.168 0.032,0.34 0.05,0.515 0.014,0.175 0.029,0.347 0.046,0.515 0.014,0.17 0.029,0.336 0.042,0.497 0.011,0.161 0.024,0.314 0.039,0.457 -0.123,0.038 -0.244,0.069 -0.361,0.091 -0.12,0.023 -0.233,0.032 -0.339,0.029 -0.11,-0.004 -0.214,-0.023 -0.312,-0.055 -0.099,-0.035 -0.192,-0.086 -0.279,-0.16 -0.1,-0.086 -0.17,-0.178 -0.213,-0.276 -0.043,-0.1 -0.065,-0.201 -0.063,-0.304 0.002,-0.103 0.025,-0.207 0.071,-0.31 0.044,-0.104 0.107,-0.202 0.186,-0.295 z m 2.799,3.051 c -0.072,-0.061 -0.13,-0.13 -0.171,-0.206 -0.043,-0.074 -0.077,-0.16 -0.098,-0.256 -0.024,-0.096 -0.04,-0.202 -0.048,-0.317 -0.008,-0.116 -0.016,-0.246 -0.022,-0.387 0.124,-0.039 0.243,-0.071 0.359,-0.094 0.116,-0.026 0.227,-0.039 0.333,-0.037 0.107,10e-4 0.208,0.016 0.304,0.046 0.095,0.029 0.183,0.079 0.264,0.149 0.138,0.118 0.208,0.26 0.21,0.426 0.003,0.167 -0.07,0.336 -0.219,0.511 -0.075,0.087 -0.154,0.155 -0.235,0.203 -0.083,0.048 -0.163,0.078 -0.244,0.089 -0.08,0.012 -0.156,0.006 -0.23,-0.015 -0.075,-0.022 -0.142,-0.06 -0.203,-0.112 z m 3.433,-14.601 c -0.078,0.104 -0.156,0.236 -0.236,0.393 -0.077,0.156 -0.141,0.306 -0.191,0.447 -0.127,0.359 -0.175,0.674 -0.139,0.944 0.036,0.271 0.145,0.491 0.331,0.662 0.133,0.124 0.333,0.233 0.602,0.327 l 2.222,0.788 -0.284,0.802 0.863,0.305 0.284,-0.802 1.199,0.425 0.371,-1.049 -1.199,-0.424 0.438,-1.239 -0.862,-0.306 -0.438,1.239 -2.085,-0.738 c -0.166,-0.059 -0.281,-0.128 -0.341,-0.206 -0.105,-0.135 -0.11,-0.336 -0.018,-0.597 0.043,-0.121 0.095,-0.24 0.157,-0.351 0.061,-0.113 0.126,-0.218 0.193,-0.313 z m -0.782,-32.567 c -0.057,-0.126 -0.089,-0.251 -0.1,-0.376 -0.011,-0.123 0.007,-0.245 0.052,-0.362 0.045,-0.117 0.121,-0.225 0.224,-0.326 0.105,-0.102 0.244,-0.191 0.414,-0.269 0.183,-0.083 0.346,-0.128 0.488,-0.134 0.14,-0.007 0.265,0.015 0.374,0.066 0.106,0.053 0.199,0.124 0.278,0.223 0.078,0.097 0.147,0.21 0.207,0.34 0.075,0.165 0.133,0.343 0.172,0.533 0.041,0.191 0.056,0.378 0.05,0.564 -0.3,0.136 -0.569,0.227 -0.806,0.274 -0.236,0.046 -0.443,0.054 -0.62,0.025 -0.177,-0.03 -0.327,-0.094 -0.448,-0.19 -0.122,-0.098 -0.218,-0.222 -0.285,-0.368 z m 2.748,-1.357 c -0.118,-0.258 -0.266,-0.483 -0.445,-0.675 -0.178,-0.189 -0.378,-0.335 -0.601,-0.431 -0.225,-0.098 -0.464,-0.145 -0.724,-0.141 -0.256,0.005 -0.526,0.07 -0.809,0.199 -0.281,0.128 -0.52,0.288 -0.713,0.483 -0.195,0.192 -0.338,0.411 -0.432,0.656 -0.094,0.243 -0.132,0.507 -0.116,0.793 0.017,0.284 0.096,0.581 0.236,0.888 0.147,0.324 0.339,0.586 0.576,0.785 0.237,0.198 0.509,0.335 0.813,0.409 0.306,0.073 0.639,0.084 0.997,0.032 0.361,-0.052 0.74,-0.168 1.135,-0.348 0.45,-0.206 0.852,-0.456 1.205,-0.752 0.353,-0.295 0.634,-0.621 0.841,-0.979 0.207,-0.356 0.329,-0.735 0.363,-1.138 0.034,-0.4 -0.045,-0.81 -0.237,-1.228 -0.107,-0.236 -0.23,-0.444 -0.371,-0.62 -0.138,-0.178 -0.259,-0.31 -0.365,-0.398 l -0.872,0.399 c 0.144,0.141 0.277,0.289 0.401,0.443 0.124,0.157 0.225,0.32 0.304,0.494 0.081,0.176 0.128,0.361 0.141,0.552 0.014,0.193 -0.014,0.386 -0.085,0.581 -0.072,0.196 -0.187,0.393 -0.348,0.591 -0.16,0.196 -0.375,0.387 -0.643,0.57 l -0.008,-0.016 c 0.004,-0.388 -0.077,-0.77 -0.243,-1.149 z m -7.378,-9.135 c -0.156,-0.258 -0.226,-0.504 -0.216,-0.735 0.013,-0.23 0.11,-0.434 0.294,-0.607 0.102,-0.097 0.209,-0.165 0.316,-0.202 0.11,-0.038 0.219,-0.049 0.327,-0.038 0.11,0.012 0.214,0.047 0.316,0.102 0.1,0.058 0.196,0.133 0.285,0.225 0.086,0.091 0.154,0.189 0.208,0.295 0.052,0.106 0.081,0.213 0.087,0.322 0.006,0.109 -0.012,0.216 -0.055,0.324 -0.042,0.106 -0.115,0.209 -0.218,0.307 -0.183,0.173 -0.39,0.26 -0.622,0.261 -0.231,-0.002 -0.471,-0.086 -0.722,-0.254 z m -2.084,1.978 c -0.104,-0.109 -0.184,-0.226 -0.241,-0.349 -0.057,-0.123 -0.087,-0.247 -0.091,-0.373 -0.003,-0.124 0.018,-0.246 0.067,-0.365 0.048,-0.121 0.124,-0.23 0.228,-0.329 0.117,-0.11 0.236,-0.188 0.361,-0.235 0.123,-0.046 0.249,-0.065 0.376,-0.056 0.127,0.009 0.253,0.042 0.379,0.099 0.127,0.057 0.249,0.135 0.368,0.235 0.093,0.124 0.164,0.25 0.215,0.38 0.051,0.128 0.077,0.256 0.079,0.384 0.002,0.126 -0.023,0.251 -0.075,0.372 -0.055,0.122 -0.139,0.236 -0.255,0.346 -0.105,0.1 -0.216,0.17 -0.339,0.213 -0.122,0.042 -0.245,0.057 -0.369,0.047 -0.125,-0.012 -0.248,-0.048 -0.368,-0.11 -0.12,-0.064 -0.232,-0.15 -0.335,-0.259 z m -0.661,0.627 c 0.227,0.238 0.465,0.424 0.718,0.557 0.251,0.135 0.503,0.217 0.753,0.246 0.248,0.028 0.49,0.003 0.724,-0.072 0.235,-0.075 0.449,-0.204 0.641,-0.387 0.151,-0.142 0.268,-0.291 0.35,-0.445 0.083,-0.154 0.138,-0.309 0.165,-0.468 0.027,-0.157 0.029,-0.315 0.006,-0.471 -0.025,-0.156 -0.069,-0.309 -0.137,-0.456 l 0.014,-0.014 c 0.294,0.124 0.582,0.166 0.864,0.129 0.281,-0.036 0.539,-0.166 0.775,-0.389 0.198,-0.188 0.34,-0.398 0.426,-0.628 0.084,-0.227 0.116,-0.463 0.097,-0.705 -0.02,-0.239 -0.085,-0.478 -0.203,-0.716 -0.115,-0.239 -0.27,-0.459 -0.466,-0.666 -0.196,-0.208 -0.41,-0.375 -0.642,-0.501 -0.231,-0.13 -0.466,-0.208 -0.705,-0.242 -0.24,-0.031 -0.477,-0.01 -0.709,0.061 -0.233,0.074 -0.451,0.205 -0.649,0.394 -0.235,0.222 -0.378,0.473 -0.428,0.752 -0.053,0.281 -0.025,0.57 0.082,0.87 l -0.013,0.013 c -0.145,-0.075 -0.294,-0.128 -0.449,-0.16 -0.155,-0.031 -0.312,-0.039 -0.471,-0.019 -0.16,0.019 -0.318,0.065 -0.476,0.14 -0.157,0.074 -0.312,0.184 -0.462,0.326 -0.193,0.183 -0.333,0.389 -0.421,0.62 -0.088,0.23 -0.125,0.47 -0.108,0.72 0.014,0.251 0.083,0.506 0.204,0.765 0.12,0.259 0.294,0.508 0.52,0.746 z m -10.382,-10.174 c 0.212,-0.426 0.454,-0.714 0.723,-0.863 0.272,-0.15 0.555,-0.153 0.849,-0.006 0.297,0.148 0.466,0.376 0.51,0.683 0.043,0.306 -0.041,0.672 -0.253,1.098 -0.213,0.426 -0.455,0.714 -0.725,0.863 -0.271,0.15 -0.556,0.152 -0.852,0.004 -0.294,-0.147 -0.462,-0.374 -0.506,-0.68 -0.043,-0.307 0.041,-0.673 0.254,-1.099 z m -1.029,-0.513 c -0.152,0.306 -0.253,0.609 -0.299,0.911 -0.047,0.301 -0.039,0.588 0.03,0.859 0.068,0.271 0.195,0.523 0.384,0.753 0.187,0.23 0.44,0.424 0.759,0.584 0.315,0.156 0.619,0.24 0.913,0.251 0.296,0.011 0.575,-0.038 0.835,-0.147 0.259,-0.107 0.498,-0.27 0.712,-0.488 0.216,-0.218 0.401,-0.479 0.553,-0.784 0.152,-0.306 0.25,-0.611 0.294,-0.914 0.045,-0.302 0.031,-0.591 -0.037,-0.865 -0.069,-0.275 -0.198,-0.526 -0.386,-0.753 -0.186,-0.23 -0.437,-0.42 -0.751,-0.577 -0.32,-0.16 -0.626,-0.246 -0.923,-0.258 -0.296,-0.013 -0.573,0.036 -0.832,0.146 -0.258,0.111 -0.493,0.276 -0.706,0.495 -0.213,0.22 -0.393,0.482 -0.546,0.787 z m -12.619,-2.318 c -0.09,-0.505 -0.21,-1.049 -0.358,-1.634 l -0.79,-3.095 -1.608,-0.154 -0.602,6.253 1.143,0.109 0.306,-3.167 c 0.044,-0.464 0.078,-1.005 0.1,-1.623 l 0.043,0.004 c 0.035,0.183 0.078,0.388 0.128,0.617 0.051,0.228 0.105,0.453 0.163,0.675 l 0.953,3.659 0.739,0.07 1.634,-3.408 c 0.098,-0.208 0.194,-0.418 0.288,-0.633 0.093,-0.215 0.174,-0.408 0.244,-0.58 l 0.043,0.004 c -0.094,0.572 -0.165,1.108 -0.213,1.607 l -0.306,3.173 1.146,0.11 0.601,-6.253 -1.597,-0.154 -1.365,2.873 c -0.23,0.479 -0.451,0.995 -0.664,1.549 z m -15.33,3.787 c -0.02,-0.059 -0.045,-0.132 -0.076,-0.22 -0.03,-0.086 -0.06,-0.159 -0.084,-0.216 l 0.008,-0.003 c 0.083,0.031 0.177,0.059 0.278,0.083 0.102,0.023 0.211,0.041 0.325,0.049 0.116,0.009 0.239,0.006 0.369,-0.009 0.13,-0.015 0.259,-0.045 0.386,-0.087 0.23,-0.077 0.44,-0.194 0.63,-0.347 0.191,-0.155 0.341,-0.349 0.452,-0.582 0.111,-0.232 0.171,-0.505 0.182,-0.816 0.011,-0.311 -0.047,-0.661 -0.177,-1.049 -0.13,-0.39 -0.297,-0.712 -0.5,-0.97 -0.205,-0.257 -0.426,-0.454 -0.666,-0.592 -0.241,-0.135 -0.493,-0.217 -0.752,-0.24 -0.261,-0.022 -0.51,0.005 -0.752,0.086 -0.263,0.088 -0.48,0.221 -0.647,0.402 -0.167,0.179 -0.288,0.377 -0.362,0.593 l -0.016,0.005 -0.208,-0.469 -0.926,0.31 1.471,4.394 c 0.085,0.253 0.178,0.461 0.279,0.628 0.103,0.169 0.216,0.309 0.344,0.421 0.15,0.131 0.318,0.234 0.506,0.306 0.188,0.072 0.389,0.118 0.604,0.134 0.215,0.017 0.442,0.009 0.682,-0.027 0.238,-0.036 0.484,-0.094 0.737,-0.178 0.143,-0.048 0.28,-0.102 0.414,-0.158 0.132,-0.056 0.256,-0.113 0.369,-0.173 0.114,-0.06 0.218,-0.118 0.307,-0.177 0.09,-0.059 0.167,-0.114 0.225,-0.161 l -0.288,-0.861 c -0.172,0.131 -0.362,0.25 -0.566,0.356 -0.204,0.106 -0.424,0.199 -0.661,0.279 -0.473,0.157 -0.868,0.188 -1.188,0.092 -0.319,-0.096 -0.541,-0.328 -0.665,-0.699 z m 0.662,-1.156 c -0.106,0.035 -0.211,0.055 -0.316,0.06 -0.103,0.006 -0.202,0 -0.297,-0.013 -0.093,-0.017 -0.181,-0.038 -0.262,-0.067 -0.081,-0.029 -0.15,-0.061 -0.214,-0.097 l -0.644,-1.927 c 0.069,-0.172 0.17,-0.33 0.307,-0.476 0.136,-0.144 0.297,-0.249 0.483,-0.314 0.065,-0.023 0.139,-0.036 0.216,-0.046 0.077,-0.007 0.162,-0.003 0.25,0.013 0.087,0.018 0.176,0.048 0.267,0.096 0.09,0.048 0.177,0.117 0.265,0.207 0.086,0.09 0.169,0.204 0.25,0.343 0.081,0.137 0.154,0.305 0.219,0.499 0.073,0.218 0.116,0.418 0.133,0.604 0.014,0.183 10e-4,0.35 -0.041,0.498 -0.044,0.148 -0.116,0.275 -0.217,0.381 -0.102,0.104 -0.235,0.184 -0.399,0.239 z m -17.343,3.45 0.372,0.502 5.494,1.774 -2.737,2.026 0.574,0.773 3.966,-2.934 -0.369,-0.499 -5.5,-1.776 2.638,-1.952 -0.573,-0.773 z m -2.293,11.914 -5.467,-3.094 -0.819,1.447 c -0.072,0.129 -0.142,0.26 -0.209,0.397 -0.065,0.136 -0.126,0.274 -0.181,0.407 -0.054,0.134 -0.103,0.267 -0.146,0.398 -0.044,0.129 -0.076,0.253 -0.099,0.37 -0.073,0.344 -0.093,0.671 -0.061,0.984 0.032,0.315 0.111,0.606 0.243,0.879 0.128,0.274 0.303,0.524 0.526,0.751 0.221,0.229 0.487,0.431 0.797,0.606 0.294,0.167 0.59,0.289 0.884,0.371 0.294,0.08 0.586,0.112 0.873,0.099 0.288,-0.013 0.572,-0.075 0.848,-0.186 0.278,-0.112 0.545,-0.277 0.806,-0.496 0.218,-0.182 0.433,-0.408 0.643,-0.679 0.21,-0.27 0.419,-0.587 0.627,-0.956 z m -1.637,0.939 c -0.332,0.586 -0.67,0.998 -1.018,1.238 -0.31,0.209 -0.644,0.311 -1.004,0.305 -0.36,-0.006 -0.754,-0.129 -1.181,-0.371 -0.224,-0.127 -0.411,-0.265 -0.564,-0.416 -0.152,-0.151 -0.272,-0.312 -0.359,-0.485 -0.089,-0.172 -0.145,-0.352 -0.172,-0.541 -0.025,-0.189 -0.024,-0.385 0.005,-0.589 0.027,-0.188 0.081,-0.386 0.162,-0.593 0.08,-0.206 0.188,-0.427 0.323,-0.664 l 0.249,-0.441 3.792,2.145 z m -7.792,13.031 -0.38,2.886 -2.564,-0.338 -0.15,1.141 6.228,0.82 0.15,-1.141 -2.709,-0.357 0.38,-2.885 2.709,0.356 0.15,-1.14 -6.228,-0.821 -0.15,1.141 z m 2.516,16.432 c -0.311,0.181 -0.533,0.312 -0.666,0.392 -0.13,0.08 -0.401,0.246 -0.811,0.498 l -2.827,1.764 0.243,1.192 5.666,-3.66 -0.206,-1.012 -6.645,-1.153 0.244,1.2 3.291,0.519 c 0.476,0.072 0.79,0.119 0.941,0.14 0.154,0.023 0.409,0.056 0.766,0.101 z m 2.388,15.872 c -0.09,-0.088 -0.178,-0.183 -0.264,-0.283 -0.085,-0.099 -0.157,-0.198 -0.218,-0.298 -0.066,-0.106 -0.111,-0.208 -0.136,-0.307 -0.025,-0.098 -0.025,-0.193 -0.002,-0.287 0.023,-0.093 0.073,-0.183 0.147,-0.271 0.076,-0.085 0.18,-0.17 0.314,-0.252 l 0.508,-0.311 0.66,1.076 0.78,-0.478 -0.66,-1.076 3.099,-1.9 -0.58,-0.947 -3.1,1.898 -0.403,-0.657 -0.78,0.478 0.403,0.658 -0.46,0.281 c -0.272,0.167 -0.483,0.349 -0.634,0.544 -0.149,0.197 -0.245,0.403 -0.288,0.615 -0.044,0.215 -0.04,0.432 0.013,0.654 0.054,0.22 0.147,0.438 0.279,0.654 0.082,0.134 0.175,0.26 0.277,0.379 0.104,0.117 0.201,0.215 0.293,0.29 z m -28.601,-27.902 c -0.608,-0.051 -1.135,-0.17 -1.576,-0.358 -0.444,-0.186 -0.807,-0.424 -1.089,-0.715 -0.281,-0.288 -0.481,-0.623 -0.602,-0.998 -0.117,-0.376 -0.16,-0.781 -0.125,-1.215 0.037,-0.434 0.147,-0.825 0.326,-1.178 0.18,-0.349 0.434,-0.644 0.759,-0.883 0.325,-0.238 0.723,-0.413 1.192,-0.525 0.467,-0.112 1.006,-0.141 1.613,-0.091 0.607,0.05 1.134,0.169 1.578,0.358 0.442,0.188 0.804,0.426 1.083,0.715 0.279,0.29 0.48,0.623 0.599,0.998 0.124,0.377 0.167,0.782 0.131,1.214 -0.036,0.434 -0.147,0.827 -0.33,1.178 -0.181,0.35 -0.434,0.647 -0.758,0.884 -0.322,0.24 -0.72,0.416 -1.186,0.525 -0.469,0.113 -1.008,0.142 -1.615,0.091 z m 3.704,0.513 c -0.046,0.122 -0.089,0.262 -0.133,0.418 -0.044,0.158 -0.084,0.322 -0.115,0.491 -0.035,0.169 -0.065,0.341 -0.089,0.511 -0.025,0.173 -0.044,0.339 -0.058,0.504 l -0.012,0.143 1.592,0.133 c -0.004,-0.267 0.006,-0.587 0.022,-0.961 0.015,-0.377 0.04,-0.772 0.075,-1.191 0.027,-0.314 0.058,-0.596 0.094,-0.842 0.036,-0.249 0.072,-0.498 0.111,-0.749 0.039,-0.248 0.076,-0.509 0.115,-0.778 0.037,-0.272 0.068,-0.538 0.089,-0.794 0.065,-0.784 -0.001,-1.486 -0.202,-2.103 -0.197,-0.617 -0.507,-1.152 -0.927,-1.598 -0.42,-0.446 -0.934,-0.8 -1.547,-1.062 -0.613,-0.262 -1.301,-0.425 -2.063,-0.488 -0.762,-0.064 -1.47,-0.015 -2.123,0.149 -0.654,0.163 -1.226,0.434 -1.72,0.812 -0.494,0.379 -0.891,0.859 -1.197,1.443 -0.303,0.583 -0.488,1.261 -0.553,2.034 -0.064,0.773 0.006,1.472 0.208,2.098 0.204,0.626 0.516,1.168 0.932,1.621 0.42,0.454 0.931,0.815 1.541,1.085 0.607,0.268 1.281,0.433 2.024,0.495 0.387,0.032 0.77,0.028 1.144,-0.017 0.376,-0.044 0.726,-0.122 1.057,-0.238 0.331,-0.116 0.644,-0.27 0.938,-0.461 0.296,-0.191 0.553,-0.414 0.775,-0.673 z m 7.844,44.081 0.119,1.397 0.423,1.289 1.343,-0.463 -0.43,-1.285 -0.775,-1.182 0.026,-0.029 1.369,0.317 1.454,-0.031 -0.025,-1.421 -1.454,0.041 -1.358,0.382 -0.033,-0.043 0.732,-1.206 0.43,-1.39 -1.362,-0.404 -0.421,1.392 -0.062,1.403 -0.034,0.017 -0.931,-1.063 -1.123,-0.759 -0.806,1.169 1.129,0.753 1.314,0.49 -0.008,0.041 -1.294,0.552 -1.135,0.863 0.857,1.127 1.134,-0.862 0.88,-1.099 z m 14.299,14.356 c 0.392,0.243 0.748,0.349 1.069,0.322 0.319,-0.029 0.627,-0.187 0.922,-0.474 l 0.027,0.017 c 0.023,0.2 0.062,0.409 0.12,0.622 0.061,0.213 0.147,0.423 0.261,0.628 0.113,0.206 0.26,0.406 0.44,0.597 0.18,0.197 0.399,0.371 0.658,0.532 0.163,0.101 0.344,0.192 0.549,0.274 0.204,0.085 0.421,0.138 0.648,0.161 0.227,0.022 0.46,0.005 0.703,-0.046 0.241,-0.053 0.482,-0.166 0.721,-0.333 0.156,-0.112 0.314,-0.261 0.475,-0.447 0.163,-0.189 0.333,-0.429 0.515,-0.723 l 4.257,-6.871 -1.51,-0.935 -4.143,6.686 c -0.11,0.178 -0.215,0.327 -0.309,0.446 -0.094,0.122 -0.187,0.213 -0.271,0.278 -0.205,0.15 -0.418,0.217 -0.634,0.201 -0.216,-0.017 -0.43,-0.093 -0.648,-0.228 -0.277,-0.171 -0.498,-0.422 -0.662,-0.759 -0.166,-0.334 -0.265,-0.724 -0.298,-1.166 l 2.539,-4.099 -1.509,-0.936 -2.812,4.539 c -0.095,0.152 -0.197,0.249 -0.31,0.29 -0.109,0.041 -0.24,0.014 -0.395,-0.082 -0.104,-0.065 -0.235,-0.173 -0.39,-0.323 l -0.755,1.218 c 0.263,0.262 0.509,0.466 0.742,0.611 z m 30.28,9.865 c 0.073,-0.686 0.058,-1.318 -0.038,-1.901 -0.095,-0.582 -0.256,-1.115 -0.482,-1.601 0.304,-0.203 0.59,-0.394 0.859,-0.579 0.266,-0.185 0.506,-0.347 0.717,-0.491 0.212,-0.141 0.383,-0.259 0.517,-0.35 0.134,-0.092 0.217,-0.148 0.247,-0.168 l -2.481,-0.517 c -0.108,0.09 -0.223,0.181 -0.35,0.275 -0.126,0.093 -0.293,0.216 -0.505,0.364 -0.405,-0.424 -0.863,-0.775 -1.374,-1.047 -0.51,-0.273 -1.045,-0.465 -1.601,-0.582 -0.451,-0.094 -0.875,-0.117 -1.272,-0.072 -0.4,0.048 -0.755,0.16 -1.065,0.33 -0.312,0.173 -0.576,0.408 -0.789,0.7 -0.216,0.295 -0.364,0.641 -0.447,1.04 -0.069,0.335 -0.081,0.652 -0.032,0.945 0.048,0.295 0.137,0.569 0.266,0.826 0.13,0.258 0.292,0.498 0.485,0.727 0.193,0.225 0.399,0.441 0.616,0.643 -0.224,0.144 -0.435,0.289 -0.63,0.436 -0.198,0.147 -0.375,0.309 -0.534,0.48 -0.158,0.171 -0.292,0.357 -0.404,0.561 -0.111,0.204 -0.193,0.433 -0.246,0.689 -0.078,0.371 -0.082,0.717 -0.01,1.038 0.072,0.323 0.21,0.611 0.417,0.869 0.206,0.257 0.479,0.478 0.814,0.661 0.339,0.184 0.734,0.32 1.19,0.416 0.455,0.095 0.874,0.132 1.255,0.11 0.384,-0.023 0.72,-0.106 1.014,-0.246 0.293,-0.141 0.536,-0.341 0.734,-0.597 0.197,-0.257 0.334,-0.574 0.413,-0.953 0.069,-0.333 0.078,-0.642 0.032,-0.932 -0.048,-0.286 -0.135,-0.556 -0.268,-0.809 -0.131,-0.252 -0.293,-0.489 -0.486,-0.715 -0.194,-0.224 -0.398,-0.439 -0.616,-0.649 0.292,-0.195 0.624,-0.418 0.998,-0.673 0.375,-0.253 0.77,-0.521 1.187,-0.801 0.101,0.317 0.171,0.661 0.204,1.032 0.033,0.367 0.02,0.764 -0.032,1.188 z m -4.627,-5.141 c 0.337,0.071 0.665,0.194 0.984,0.368 0.32,0.174 0.61,0.399 0.873,0.679 -0.225,0.152 -0.453,0.306 -0.685,0.464 -0.234,0.155 -0.462,0.309 -0.687,0.461 -0.225,0.151 -0.447,0.299 -0.662,0.439 -0.217,0.141 -0.42,0.276 -0.61,0.406 -0.148,-0.143 -0.285,-0.289 -0.405,-0.437 -0.124,-0.149 -0.223,-0.3 -0.301,-0.452 -0.078,-0.155 -0.133,-0.316 -0.161,-0.479 -0.029,-0.165 -0.027,-0.335 0.009,-0.512 0.043,-0.206 0.118,-0.376 0.223,-0.511 0.106,-0.137 0.231,-0.245 0.377,-0.322 0.147,-0.076 0.308,-0.124 0.489,-0.139 0.18,-0.017 0.365,-0.005 0.556,0.035 z m -2.125,6.262 c 0.03,-0.149 0.083,-0.282 0.156,-0.397 0.072,-0.117 0.166,-0.232 0.285,-0.335 0.115,-0.107 0.252,-0.209 0.407,-0.31 0.156,-0.101 0.332,-0.211 0.526,-0.327 0.147,0.143 0.285,0.287 0.406,0.43 0.125,0.143 0.228,0.288 0.307,0.438 0.08,0.15 0.137,0.302 0.17,0.461 0.03,0.155 0.028,0.317 -0.007,0.486 -0.059,0.283 -0.205,0.49 -0.435,0.619 -0.231,0.132 -0.525,0.16 -0.883,0.086 -0.181,-0.038 -0.336,-0.097 -0.467,-0.173 -0.129,-0.079 -0.234,-0.17 -0.311,-0.274 -0.078,-0.103 -0.128,-0.213 -0.155,-0.333 -0.027,-0.121 -0.025,-0.246 10e-4,-0.371 z m 26.911,-7.02 c -0.207,-0.029 -0.45,-0.035 -0.732,-0.027 -0.277,0.012 -0.535,0.036 -0.772,0.075 -0.602,0.097 -1.079,0.273 -1.429,0.529 -0.353,0.26 -0.577,0.581 -0.674,0.973 -0.071,0.281 -0.07,0.645 0.003,1.094 l 0.604,3.717 -1.342,0.217 0.234,1.443 1.341,-0.218 0.326,2.006 1.754,-0.285 -0.326,-2.006 2.071,-0.336 -0.233,-1.443 -2.071,0.336 -0.567,-3.486 c -0.045,-0.278 -0.035,-0.49 0.027,-0.634 0.109,-0.251 0.386,-0.413 0.824,-0.484 0.201,-0.032 0.407,-0.05 0.611,-0.05 0.205,0 0.4,0.01 0.586,0.029 z m 36.424,-20.902 c 0.133,-0.177 0.284,-0.319 0.45,-0.428 0.165,-0.11 0.347,-0.179 0.547,-0.205 0.198,-0.027 0.408,-0.005 0.627,0.064 0.224,0.068 0.458,0.193 0.697,0.373 0.256,0.191 0.443,0.385 0.56,0.579 0.118,0.193 0.182,0.385 0.194,0.575 0.008,0.19 -0.021,0.375 -0.097,0.561 -0.076,0.183 -0.181,0.367 -0.318,0.551 -0.174,0.232 -0.378,0.449 -0.615,0.65 -0.235,0.204 -0.486,0.368 -0.752,0.502 -0.42,-0.314 -0.753,-0.621 -1.001,-0.918 -0.246,-0.296 -0.417,-0.58 -0.512,-0.849 -0.092,-0.271 -0.118,-0.53 -0.077,-0.774 0.043,-0.246 0.143,-0.475 0.297,-0.681 z m 4.009,2.807 c 0.271,-0.362 0.473,-0.743 0.604,-1.14 0.129,-0.395 0.178,-0.787 0.142,-1.174 -0.036,-0.389 -0.153,-0.761 -0.357,-1.121 -0.203,-0.356 -0.503,-0.683 -0.9,-0.98 -0.396,-0.296 -0.804,-0.507 -1.223,-0.63 -0.419,-0.124 -0.835,-0.157 -1.251,-0.101 -0.412,0.056 -0.812,0.206 -1.199,0.446 -0.386,0.242 -0.741,0.58 -1.063,1.012 -0.342,0.457 -0.56,0.925 -0.657,1.409 -0.097,0.484 -0.08,0.97 0.051,1.454 0.132,0.486 0.372,0.959 0.72,1.421 0.349,0.465 0.802,0.906 1.358,1.321 0.634,0.474 1.292,0.845 1.978,1.111 0.685,0.269 1.358,0.412 2.017,0.429 0.658,0.015 1.282,-0.106 1.87,-0.366 0.588,-0.26 1.101,-0.686 1.541,-1.275 0.248,-0.331 0.445,-0.664 0.583,-0.994 0.143,-0.332 0.234,-0.603 0.276,-0.818 l -1.226,-0.916 c -0.089,0.311 -0.191,0.611 -0.314,0.903 -0.124,0.295 -0.275,0.561 -0.458,0.805 -0.185,0.248 -0.407,0.456 -0.666,0.621 -0.258,0.167 -0.55,0.275 -0.879,0.327 -0.329,0.051 -0.691,0.039 -1.093,-0.035 -0.399,-0.073 -0.83,-0.227 -1.294,-0.462 l 0.018,-0.024 c 0.545,-0.293 1.018,-0.7 1.422,-1.223 z m 10.28,-20.098 c 0.243,-0.416 0.533,-0.702 0.864,-0.865 0.333,-0.159 0.691,-0.179 1.076,-0.056 0.215,0.069 0.391,0.166 0.525,0.29 0.138,0.124 0.238,0.267 0.304,0.428 0.066,0.161 0.1,0.335 0.1,0.521 -0.004,0.185 -0.035,0.376 -0.098,0.571 -0.061,0.19 -0.145,0.362 -0.252,0.519 -0.108,0.153 -0.236,0.276 -0.385,0.368 -0.147,0.092 -0.311,0.15 -0.496,0.172 -0.181,0.023 -0.381,-0.002 -0.595,-0.07 -0.385,-0.124 -0.666,-0.348 -0.844,-0.671 -0.175,-0.325 -0.243,-0.726 -0.199,-1.207 z m -4.371,-1.401 c 0.075,-0.23 0.176,-0.43 0.304,-0.604 0.129,-0.174 0.28,-0.311 0.453,-0.414 0.172,-0.101 0.36,-0.165 0.564,-0.187 0.206,-0.026 0.417,-0.001 0.635,0.069 0.244,0.078 0.444,0.185 0.607,0.323 0.159,0.138 0.282,0.3 0.366,0.483 0.085,0.186 0.136,0.388 0.152,0.608 0.018,0.221 0.002,0.453 -0.045,0.695 -0.103,0.226 -0.225,0.423 -0.369,0.592 -0.139,0.17 -0.298,0.304 -0.476,0.406 -0.175,0.1 -0.369,0.162 -0.579,0.18 -0.212,0.017 -0.438,-0.012 -0.681,-0.09 -0.219,-0.069 -0.404,-0.172 -0.558,-0.312 -0.152,-0.138 -0.267,-0.299 -0.349,-0.48 -0.08,-0.185 -0.124,-0.385 -0.128,-0.601 -0.003,-0.216 0.031,-0.439 0.104,-0.668 z m -1.383,-0.443 c -0.161,0.499 -0.239,0.976 -0.232,1.433 0.004,0.455 0.083,0.87 0.236,1.242 0.15,0.371 0.371,0.691 0.655,0.96 0.286,0.272 0.632,0.471 1.035,0.601 0.314,0.101 0.613,0.151 0.892,0.149 0.279,-0.002 0.538,-0.046 0.782,-0.129 0.241,-0.081 0.462,-0.201 0.664,-0.354 0.2,-0.153 0.379,-0.333 0.534,-0.541 l 0.029,0.01 c 0.053,0.506 0.214,0.942 0.484,1.308 0.266,0.367 0.645,0.629 1.137,0.787 0.416,0.134 0.821,0.172 1.207,0.115 0.384,-0.057 0.74,-0.193 1.063,-0.404 0.32,-0.212 0.605,-0.488 0.849,-0.835 0.244,-0.344 0.435,-0.731 0.574,-1.165 0.139,-0.433 0.209,-0.86 0.211,-1.282 0.003,-0.424 -0.068,-0.815 -0.205,-1.173 -0.141,-0.36 -0.351,-0.677 -0.629,-0.947 -0.281,-0.27 -0.634,-0.474 -1.05,-0.607 -0.492,-0.158 -0.952,-0.166 -1.383,-0.021 -0.432,0.14 -0.817,0.401 -1.154,0.782 l -0.029,-0.009 c -0.005,-0.26 -0.047,-0.51 -0.121,-0.751 -0.075,-0.242 -0.184,-0.468 -0.334,-0.674 -0.15,-0.21 -0.335,-0.396 -0.562,-0.56 -0.225,-0.163 -0.496,-0.296 -0.811,-0.397 -0.405,-0.13 -0.8,-0.168 -1.192,-0.114 -0.388,0.054 -0.753,0.186 -1.091,0.401 -0.34,0.214 -0.645,0.505 -0.914,0.873 -0.27,0.367 -0.485,0.802 -0.645,1.302 z m 1.391,-45.451 c 0.639,-0.513 1.309,-1.098 2.013,-1.754 l 3.728,-3.482 -1.016,-2.372 -9.221,3.957 0.724,1.686 4.671,-2.004 c 0.684,-0.294 1.468,-0.661 2.35,-1.105 l 0.027,0.063 c -0.228,0.19 -0.483,0.407 -0.764,0.653 -0.281,0.247 -0.554,0.495 -0.822,0.747 l -4.392,4.142 0.468,1.089 6.028,-0.328 c 0.366,-0.021 0.735,-0.047 1.107,-0.082 0.372,-0.034 0.706,-0.069 1,-0.103 l 0.027,0.064 c -0.873,0.307 -1.678,0.619 -2.414,0.935 l -4.679,2.007 0.725,1.689 9.22,-3.955 -1.011,-2.358 -5.071,0.293 c -0.847,0.046 -1.739,0.134 -2.68,0.258 z M 339.046,253.29 c 0.067,-0.073 0.151,-0.163 0.25,-0.273 0.098,-0.109 0.177,-0.206 0.239,-0.285 l 0.009,0.009 c 0.019,0.14 0.053,0.294 0.098,0.453 0.046,0.16 0.104,0.327 0.179,0.494 0.078,0.17 0.175,0.339 0.297,0.509 0.121,0.17 0.261,0.328 0.419,0.474 0.283,0.263 0.607,0.467 0.968,0.617 0.364,0.148 0.751,0.209 1.162,0.186 0.41,-0.024 0.839,-0.148 1.283,-0.372 0.445,-0.224 0.889,-0.572 1.334,-1.054 0.445,-0.48 0.769,-0.962 0.974,-1.444 0.202,-0.482 0.309,-0.944 0.318,-1.388 0.006,-0.439 -0.073,-0.855 -0.24,-1.236 -0.169,-0.383 -0.399,-0.711 -0.698,-0.987 -0.325,-0.301 -0.678,-0.503 -1.061,-0.599 -0.378,-0.096 -0.748,-0.113 -1.106,-0.051 l -0.021,-0.019 0.498,-0.652 -1.143,-1.058 -5.029,5.432 c -0.288,0.313 -0.508,0.604 -0.665,0.874 -0.158,0.273 -0.265,0.539 -0.325,0.804 -0.068,0.311 -0.083,0.624 -0.04,0.943 0.043,0.32 0.133,0.636 0.276,0.95 0.14,0.315 0.327,0.627 0.561,0.934 0.233,0.307 0.504,0.606 0.815,0.895 0.177,0.163 0.358,0.315 0.539,0.459 0.181,0.143 0.354,0.272 0.526,0.384 0.171,0.114 0.332,0.214 0.483,0.295 0.153,0.081 0.286,0.147 0.399,0.191 l 0.984,-1.063 c -0.315,-0.141 -0.629,-0.316 -0.932,-0.52 -0.306,-0.203 -0.606,-0.442 -0.899,-0.713 -0.584,-0.541 -0.931,-1.07 -1.04,-1.592 -0.111,-0.52 0.046,-1.011 0.469,-1.469 z m 2.127,0.041 c -0.131,-0.121 -0.239,-0.253 -0.326,-0.396 -0.087,-0.14 -0.157,-0.284 -0.209,-0.427 -0.049,-0.143 -0.087,-0.282 -0.109,-0.417 -0.021,-0.135 -0.029,-0.259 -0.027,-0.375 l 2.204,-2.382 c 0.295,-0.035 0.593,-0.013 0.901,0.067 0.308,0.079 0.578,0.223 0.812,0.433 0.081,0.076 0.157,0.166 0.23,0.27 0.069,0.102 0.128,0.223 0.173,0.358 0.042,0.137 0.068,0.285 0.071,0.449 0.002,0.163 -0.028,0.337 -0.087,0.53 -0.06,0.189 -0.156,0.393 -0.288,0.612 -0.129,0.22 -0.309,0.45 -0.531,0.691 -0.249,0.269 -0.496,0.483 -0.743,0.648 -0.247,0.161 -0.491,0.272 -0.73,0.326 -0.241,0.052 -0.474,0.049 -0.7,-0.012 -0.225,-0.063 -0.438,-0.186 -0.641,-0.375 z m -18.142,-21.643 -0.418,0.906 1.731,9.056 -4.936,-2.278 -0.644,1.396 7.154,3.303 0.416,-0.9 -1.735,-9.066 4.759,2.198 0.645,-1.397 z m -18.447,5.932 0.137,-10.033 -2.655,-0.036 c -0.235,-0.004 -0.473,0.001 -0.716,0.013 -0.242,0.012 -0.48,0.032 -0.71,0.057 -0.229,0.027 -0.452,0.06 -0.667,0.1 -0.216,0.038 -0.413,0.087 -0.596,0.147 -0.537,0.161 -1.012,0.384 -1.425,0.669 -0.416,0.286 -0.764,0.621 -1.045,1.014 -0.284,0.391 -0.5,0.828 -0.648,1.315 -0.15,0.484 -0.229,1.012 -0.237,1.581 -0.007,0.54 0.048,1.048 0.16,1.522 0.113,0.473 0.292,0.908 0.53,1.3 0.24,0.393 0.545,0.742 0.912,1.045 0.369,0.302 0.806,0.551 1.313,0.747 0.422,0.167 0.905,0.294 1.444,0.38 0.539,0.087 1.144,0.137 1.82,0.145 z m -2.571,-1.574 c -1.075,-0.015 -1.913,-0.173 -2.516,-0.474 -0.531,-0.275 -0.931,-0.664 -1.197,-1.174 -0.27,-0.508 -0.399,-1.155 -0.388,-1.939 0.005,-0.411 0.057,-0.779 0.151,-1.108 0.094,-0.329 0.228,-0.621 0.403,-0.875 0.173,-0.257 0.383,-0.474 0.626,-0.657 0.245,-0.181 0.521,-0.328 0.828,-0.445 0.285,-0.106 0.603,-0.183 0.955,-0.227 0.351,-0.046 0.743,-0.065 1.179,-0.059 l 0.808,0.012 -0.094,6.956 z m -24.233,-0.913 -4.333,1.683 -1.495,-3.851 -1.713,0.665 3.632,9.354 1.712,-0.666 -1.579,-4.068 4.333,-1.682 1.58,4.068 1.713,-0.665 -3.631,-9.353 -1.713,0.665 z m -21.085,16.136 c -0.493,-0.298 -0.845,-0.509 -1.06,-0.632 -0.212,-0.123 -0.652,-0.374 -1.32,-0.755 l -4.64,-2.605 -1.483,1.255 9.475,5.127 1.259,-1.065 -3.485,-10.193 -1.493,1.263 1.799,5.008 c 0.264,0.722 0.439,1.198 0.525,1.427 0.086,0.232 0.235,0.614 0.447,1.15 z m -20.399,15.524 c 0.055,-0.193 0.12,-0.388 0.194,-0.586 0.074,-0.196 0.157,-0.372 0.25,-0.535 0.1,-0.173 0.207,-0.314 0.327,-0.425 0.116,-0.111 0.25,-0.185 0.399,-0.224 0.149,-0.038 0.314,-0.038 0.493,0 0.178,0.039 0.376,0.12 0.593,0.245 l 0.827,0.473 -1.002,1.751 1.269,0.725 1.001,-1.751 5.039,2.884 0.882,-1.542 -5.039,-2.883 0.612,-1.069 -1.268,-0.726 -0.612,1.069 -0.748,-0.428 c -0.442,-0.253 -0.858,-0.408 -1.247,-0.47 -0.391,-0.057 -0.753,-0.035 -1.083,0.068 -0.334,0.104 -0.636,0.276 -0.906,0.52 -0.266,0.246 -0.501,0.542 -0.702,0.893 -0.124,0.217 -0.23,0.443 -0.318,0.679 -0.084,0.235 -0.147,0.447 -0.183,0.633 z m 28.208,-54.313 c -0.194,0.009 -0.411,0.033 -0.649,0.065 -0.243,0.033 -0.489,0.075 -0.739,0.13 -0.251,0.053 -0.504,0.114 -0.751,0.181 -0.25,0.067 -0.488,0.138 -0.722,0.217 l -0.202,0.067 0.754,2.253 c 0.364,-0.162 0.806,-0.339 1.326,-0.536 0.524,-0.199 1.079,-0.398 1.671,-0.597 0.445,-0.148 0.849,-0.271 1.207,-0.367 0.36,-0.097 0.722,-0.193 1.087,-0.289 0.362,-0.093 0.741,-0.196 1.13,-0.301 0.394,-0.109 0.774,-0.223 1.138,-0.347 1.108,-0.371 2.027,-0.875 2.753,-1.512 0.727,-0.632 1.276,-1.369 1.638,-2.205 0.362,-0.837 0.543,-1.748 0.541,-2.74 -0.004,-0.99 -0.186,-2.025 -0.547,-3.104 -0.362,-1.079 -0.846,-2.017 -1.453,-2.814 -0.608,-0.795 -1.313,-1.417 -2.12,-1.871 -0.81,-0.45 -1.7,-0.711 -2.676,-0.785 -0.974,-0.071 -2.011,0.074 -3.104,0.442 -1.094,0.366 -2.008,0.874 -2.743,1.517 -0.735,0.648 -1.293,1.392 -1.667,2.228 -0.373,0.84 -0.565,1.752 -0.575,2.742 -0.009,0.987 0.162,2.006 0.514,3.056 0.184,0.547 0.414,1.069 0.697,1.553 0.28,0.488 0.593,0.92 0.946,1.303 0.355,0.385 0.749,0.723 1.181,1.011 0.436,0.292 0.891,0.512 1.375,0.663 z m -35.744,9.151 1.943,-1.603 c 0.294,-0.242 0.555,-0.434 0.79,-0.572 0.236,-0.146 0.465,-0.251 0.68,-0.326 0.514,-0.161 0.983,-0.173 1.415,-0.031 0.43,0.144 0.79,0.39 1.085,0.747 0.155,0.189 0.285,0.387 0.388,0.589 0.102,0.208 0.165,0.422 0.192,0.646 0.027,0.224 0.005,0.455 -0.056,0.698 -0.061,0.237 -0.182,0.485 -0.353,0.745 -0.119,0.173 -0.272,0.357 -0.464,0.556 -0.195,0.2 -0.446,0.427 -0.755,0.681 l -1.85,1.527 z m 6.69,3.571 6.17,2.184 2.398,-1.978 -6.705,-2.29 -0.029,-0.036 c 0.52,-0.888 0.741,-1.751 0.666,-2.579 -0.076,-0.828 -0.435,-1.628 -1.075,-2.403 -0.625,-0.758 -1.374,-1.265 -2.256,-1.519 -0.883,-0.259 -1.812,-0.223 -2.789,0.1 -0.369,0.12 -0.75,0.298 -1.143,0.523 -0.389,0.227 -0.81,0.525 -1.256,0.893 l -4.243,3.501 9.496,11.51 2.108,-1.739 -3.571,-4.329 z m -26.545,23.925 -1.839,0.987 -1.511,1.335 1.423,1.56 1.501,-1.342 1.159,-1.754 0.054,0.018 0.373,2.057 0.899,1.968 1.926,-0.871 -0.911,-1.962 -1.321,-1.63 0.039,-0.07 2.078,0.291 2.152,-0.231 -0.249,-2.099 -2.149,0.245 -1.954,0.742 -0.043,-0.039 0.905,-1.897 0.376,-1.979 -2.072,-0.414 -0.364,1.985 0.103,2.083 -0.06,0.013 -1.516,-1.442 -1.845,-1.043 -1.036,1.833 1.846,1.043 2.018,0.555 z m -6.86,75.143 c 0.98,-0.304 1.836,-0.696 2.575,-1.169 0.738,-0.474 1.372,-1.006 1.903,-1.601 0.457,0.296 0.886,0.574 1.296,0.832 0.41,0.254 0.771,0.488 1.093,0.69 0.317,0.207 0.581,0.372 0.782,0.502 0.205,0.128 0.33,0.207 0.375,0.237 l -0.753,-3.692 c -0.186,-0.094 -0.378,-0.198 -0.581,-0.316 -0.203,-0.118 -0.467,-0.275 -0.796,-0.476 0.341,-0.803 0.552,-1.634 0.623,-2.493 0.073,-0.857 0.021,-1.701 -0.147,-2.53 -0.137,-0.671 -0.355,-1.264 -0.65,-1.778 -0.3,-0.519 -0.662,-0.938 -1.077,-1.262 -0.419,-0.325 -0.896,-0.547 -1.421,-0.665 -0.53,-0.122 -1.089,-0.12 -1.683,0.001 -0.5,0.102 -0.938,0.273 -1.31,0.511 -0.374,0.241 -0.697,0.523 -0.972,0.851 -0.276,0.328 -0.509,0.691 -0.707,1.088 -0.194,0.398 -0.368,0.806 -0.516,1.22 -0.329,-0.22 -0.65,-0.423 -0.966,-0.603 -0.317,-0.183 -0.643,-0.331 -0.969,-0.448 -0.327,-0.115 -0.661,-0.187 -1.005,-0.222 -0.345,-0.03 -0.705,-0.007 -1.086,0.07 -0.552,0.112 -1.028,0.311 -1.424,0.597 -0.4,0.288 -0.712,0.647 -0.941,1.082 -0.231,0.432 -0.373,0.934 -0.425,1.5 -0.051,0.571 -0.006,1.19 0.132,1.869 0.138,0.679 0.333,1.273 0.588,1.781 0.257,0.51 0.569,0.921 0.933,1.238 0.364,0.319 0.781,0.533 1.248,0.652 0.466,0.118 0.98,0.118 1.543,0.004 0.496,-0.101 0.924,-0.27 1.292,-0.504 0.363,-0.235 0.68,-0.512 0.948,-0.842 0.267,-0.327 0.496,-0.688 0.691,-1.085 0.191,-0.396 0.365,-0.802 0.524,-1.222 0.439,0.283 0.939,0.605 1.506,0.967 0.567,0.362 1.166,0.745 1.792,1.15 -0.373,0.325 -0.801,0.623 -1.288,0.884 -0.483,0.262 -1.033,0.479 -1.641,0.657 z m 4.3,-9.345 c 0.103,0.504 0.127,1.023 0.078,1.561 -0.049,0.539 -0.187,1.068 -0.414,1.592 -0.34,-0.218 -0.685,-0.439 -1.037,-0.663 -0.349,-0.228 -0.694,-0.449 -1.033,-0.666 -0.34,-0.22 -0.672,-0.435 -0.99,-0.647 -0.32,-0.214 -0.624,-0.412 -0.914,-0.594 0.109,-0.286 0.228,-0.56 0.359,-0.811 0.13,-0.256 0.279,-0.481 0.441,-0.677 0.165,-0.197 0.353,-0.367 0.559,-0.502 0.208,-0.136 0.441,-0.234 0.706,-0.289 0.305,-0.061 0.582,-0.059 0.828,0.003 0.25,0.066 0.47,0.173 0.661,0.328 0.191,0.155 0.35,0.348 0.477,0.586 0.129,0.235 0.221,0.496 0.279,0.779 z m -9.803,0.782 c 0.221,-0.046 0.434,-0.053 0.635,-0.021 0.203,0.029 0.413,0.091 0.625,0.192 0.214,0.096 0.433,0.222 0.663,0.373 0.229,0.155 0.483,0.33 0.755,0.526 -0.108,0.287 -0.223,0.558 -0.347,0.809 -0.123,0.254 -0.26,0.48 -0.418,0.676 -0.158,0.199 -0.333,0.367 -0.53,0.504 -0.195,0.133 -0.417,0.225 -0.667,0.276 -0.422,0.086 -0.791,0.009 -1.103,-0.23 -0.317,-0.238 -0.528,-0.623 -0.637,-1.156 -0.054,-0.269 -0.065,-0.515 -0.038,-0.739 0.033,-0.223 0.094,-0.418 0.192,-0.586 0.094,-0.166 0.215,-0.3 0.363,-0.408 0.15,-0.108 0.321,-0.179 0.507,-0.216 z m 25.42,32.629 c -0.082,-0.3 -0.215,-0.635 -0.393,-1.014 -0.179,-0.373 -0.364,-0.712 -0.556,-1.013 -0.487,-0.764 -1.008,-1.312 -1.564,-1.64 -0.561,-0.327 -1.133,-0.446 -1.725,-0.348 -0.427,0.069 -0.921,0.284 -1.492,0.648 l -4.722,3.011 -1.087,-1.705 -1.833,1.169 1.087,1.704 -2.548,1.625 1.42,2.228 2.549,-1.625 1.678,2.632 1.832,-1.169 -1.678,-2.631 4.43,-2.825 c 0.353,-0.224 0.648,-0.336 0.882,-0.337 0.407,0.002 0.792,0.285 1.145,0.842 0.164,0.256 0.309,0.526 0.429,0.805 0.12,0.28 0.222,0.554 0.304,0.818 z m 53.368,39.336 c 0.318,0.077 0.602,0.2 0.849,0.361 0.247,0.161 0.448,0.369 0.601,0.626 0.155,0.256 0.246,0.556 0.283,0.897 0.038,0.346 0.003,0.737 -0.101,1.17 -0.111,0.463 -0.266,0.833 -0.461,1.106 -0.195,0.275 -0.419,0.476 -0.672,0.603 -0.254,0.124 -0.524,0.192 -0.823,0.198 -0.295,0.004 -0.607,-0.031 -0.94,-0.111 -0.419,-0.101 -0.837,-0.252 -1.249,-0.457 -0.418,-0.201 -0.79,-0.447 -1.128,-0.732 0.182,-0.759 0.405,-1.394 0.665,-1.907 0.258,-0.511 0.545,-0.911 0.858,-1.2 0.315,-0.285 0.655,-0.473 1.012,-0.56 0.361,-0.086 0.732,-0.083 1.106,0.006 z m -1.477,7.127 c 0.654,0.157 1.293,0.209 1.912,0.154 0.616,-0.057 1.179,-0.219 1.688,-0.496 0.51,-0.277 0.949,-0.657 1.321,-1.148 0.367,-0.487 0.637,-1.088 0.809,-1.806 0.171,-0.714 0.221,-1.396 0.141,-2.041 -0.077,-0.645 -0.277,-1.233 -0.599,-1.768 -0.319,-0.53 -0.757,-0.988 -1.314,-1.376 -0.557,-0.384 -1.228,-0.67 -2.006,-0.856 -0.826,-0.198 -1.595,-0.221 -2.313,-0.069 -0.718,0.152 -1.371,0.461 -1.955,0.924 -0.586,0.467 -1.091,1.074 -1.517,1.821 -0.431,0.75 -0.767,1.63 -1.007,2.632 -0.274,1.145 -0.394,2.262 -0.354,3.355 0.036,1.094 0.237,2.098 0.602,3.007 0.366,0.909 0.899,1.691 1.6,2.341 0.701,0.65 1.584,1.1 2.647,1.355 0.599,0.143 1.169,0.217 1.702,0.211 0.537,0 0.96,-0.036 1.278,-0.104 l 0.531,-2.214 c -0.477,0.062 -0.948,0.098 -1.418,0.103 -0.476,0.003 -0.928,-0.047 -1.37,-0.153 -0.447,-0.107 -0.861,-0.288 -1.239,-0.543 -0.381,-0.256 -0.7,-0.591 -0.964,-1.01 -0.263,-0.419 -0.46,-0.921 -0.596,-1.513 -0.134,-0.587 -0.178,-1.269 -0.129,-2.039 l 0.044,0.01 c 0.72,0.572 1.553,0.98 2.506,1.223 z m 33.54,1.487 c 0.712,0.087 1.274,0.313 1.69,0.67 0.413,0.362 0.651,0.84 0.709,1.438 0.033,0.334 0.003,0.631 -0.086,0.888 -0.09,0.261 -0.226,0.481 -0.406,0.667 -0.182,0.185 -0.4,0.332 -0.653,0.442 -0.254,0.105 -0.535,0.173 -0.837,0.203 -0.296,0.028 -0.581,0.013 -0.858,-0.04 -0.272,-0.057 -0.516,-0.16 -0.728,-0.307 -0.214,-0.149 -0.389,-0.338 -0.527,-0.577 -0.137,-0.235 -0.222,-0.522 -0.255,-0.855 -0.057,-0.599 0.083,-1.113 0.42,-1.548 0.341,-0.43 0.849,-0.759 1.531,-0.981 z m -0.657,-6.795 c 0.357,-0.034 0.691,-0.013 1.004,0.061 0.314,0.072 0.589,0.199 0.831,0.375 0.24,0.175 0.437,0.393 0.588,0.658 0.156,0.267 0.247,0.569 0.279,0.91 0.038,0.378 0.009,0.714 -0.084,1.018 -0.094,0.299 -0.244,0.562 -0.445,0.785 -0.203,0.226 -0.448,0.414 -0.741,0.564 -0.291,0.155 -0.616,0.27 -0.977,0.347 -0.367,-0.006 -0.708,-0.058 -1.023,-0.153 -0.314,-0.092 -0.592,-0.23 -0.836,-0.413 -0.239,-0.18 -0.437,-0.409 -0.586,-0.685 -0.149,-0.28 -0.241,-0.604 -0.278,-0.983 -0.033,-0.34 -0.002,-0.653 0.098,-0.946 0.1,-0.289 0.251,-0.541 0.452,-0.759 0.205,-0.219 0.452,-0.396 0.744,-0.527 0.294,-0.132 0.618,-0.217 0.974,-0.252 z m -0.208,-2.151 c -0.777,0.075 -1.474,0.25 -2.093,0.528 -0.622,0.274 -1.141,0.626 -1.56,1.052 -0.417,0.423 -0.726,0.912 -0.926,1.459 -0.202,0.551 -0.272,1.14 -0.211,1.768 0.047,0.489 0.155,0.927 0.321,1.304 0.168,0.381 0.379,0.71 0.635,0.994 0.254,0.282 0.547,0.514 0.874,0.699 0.328,0.183 0.678,0.322 1.054,0.411 l 0.004,0.046 c -0.659,0.37 -1.16,0.846 -1.502,1.43 -0.345,0.58 -0.479,1.251 -0.405,2.017 0.061,0.647 0.248,1.222 0.552,1.717 0.303,0.49 0.699,0.896 1.177,1.213 0.478,0.313 1.023,0.54 1.64,0.668 0.613,0.131 1.255,0.165 1.929,0.1 0.674,-0.065 1.298,-0.221 1.875,-0.468 0.581,-0.244 1.073,-0.571 1.483,-0.969 0.408,-0.403 0.717,-0.877 0.922,-1.416 0.203,-0.544 0.275,-1.145 0.212,-1.791 -0.073,-0.766 -0.333,-1.399 -0.784,-1.902 -0.447,-0.508 -1.029,-0.88 -1.748,-1.117 l -0.004,-0.044 c 0.351,-0.161 0.669,-0.364 0.955,-0.606 0.286,-0.245 0.529,-0.529 0.723,-0.854 0.199,-0.328 0.343,-0.69 0.434,-1.097 0.091,-0.403 0.112,-0.852 0.065,-1.341 -0.06,-0.629 -0.241,-1.193 -0.546,-1.695 -0.3,-0.499 -0.697,-0.919 -1.188,-1.255 -0.492,-0.338 -1.07,-0.584 -1.73,-0.734 -0.662,-0.155 -1.381,-0.192 -2.158,-0.117 z m 34.225,-4.569 c 0.487,1.02 0.673,1.894 0.559,2.619 -0.119,0.726 -0.526,1.259 -1.23,1.594 -0.711,0.341 -1.385,0.324 -2.024,-0.041 -0.635,-0.367 -1.199,-1.061 -1.685,-2.08 -0.487,-1.021 -0.672,-1.895 -0.559,-2.62 0.118,-0.726 0.529,-1.261 1.24,-1.6 0.705,-0.336 1.375,-0.318 2.013,0.047 0.636,0.368 1.199,1.06 1.686,2.081 z m 2.463,-1.176 c -0.35,-0.732 -0.769,-1.362 -1.267,-1.892 -0.496,-0.527 -1.047,-0.931 -1.651,-1.198 -0.61,-0.271 -1.267,-0.4 -1.972,-0.383 -0.705,0.016 -1.437,0.205 -2.203,0.571 -0.753,0.359 -1.353,0.805 -1.806,1.342 -0.453,0.536 -0.768,1.13 -0.945,1.776 -0.178,0.641 -0.222,1.329 -0.127,2.047 0.092,0.724 0.312,1.45 0.661,2.182 0.35,0.731 0.776,1.359 1.281,1.885 0.499,0.526 1.061,0.924 1.674,1.196 0.617,0.271 1.274,0.397 1.975,0.378 0.701,-0.014 1.425,-0.204 2.177,-0.563 0.766,-0.366 1.375,-0.812 1.831,-1.35 0.459,-0.535 0.771,-1.125 0.944,-1.771 0.168,-0.646 0.201,-1.329 0.104,-2.046 -0.1,-0.719 -0.327,-1.442 -0.676,-2.174 z m 22.788,-20.237 c 1.076,0.569 2.27,1.14 3.581,1.717 l 6.949,3.045 2.641,-2.785 -10.828,-10.268 -1.877,1.981 5.485,5.201 c 0.804,0.763 1.766,1.618 2.893,2.561 l -0.072,0.074 c -0.392,-0.2 -0.84,-0.42 -1.341,-0.659 -0.502,-0.24 -1.001,-0.467 -1.502,-0.685 l -8.244,-3.562 -1.212,1.279 3.994,8.042 c 0.244,0.489 0.498,0.975 0.764,1.464 0.266,0.488 0.509,0.924 0.729,1.305 l -0.07,0.075 c -0.935,-1.012 -1.835,-1.928 -2.7,-2.748 l -5.494,-5.21 -1.88,1.983 10.827,10.268 2.625,-2.768 -3.383,-6.754 c -0.561,-1.13 -1.205,-2.297 -1.929,-3.509 z m 18.128,-38.734 c 0.139,0.049 0.311,0.11 0.521,0.18 0.205,0.07 0.385,0.12 0.529,0.159 l -0.006,0.018 c -0.181,0.11 -0.369,0.246 -0.562,0.399 -0.192,0.158 -0.385,0.336 -0.569,0.537 -0.186,0.206 -0.36,0.439 -0.52,0.706 -0.162,0.264 -0.295,0.549 -0.402,0.85 -0.191,0.542 -0.281,1.104 -0.273,1.685 0.011,0.585 0.156,1.149 0.429,1.697 0.276,0.546 0.697,1.059 1.263,1.534 0.567,0.475 1.305,0.877 2.224,1.202 0.919,0.325 1.767,0.484 2.547,0.481 0.778,-0.008 1.472,-0.134 2.082,-0.382 0.605,-0.251 1.126,-0.604 1.548,-1.055 0.423,-0.456 0.737,-0.965 0.938,-1.535 0.22,-0.62 0.288,-1.222 0.193,-1.8 -0.092,-0.574 -0.285,-1.09 -0.581,-1.543 l 0.014,-0.039 1.182,0.297 0.774,-2.185 -10.379,-3.672 c -0.596,-0.21 -1.123,-0.34 -1.584,-0.394 -0.466,-0.056 -0.894,-0.046 -1.29,0.028 -0.465,0.09 -0.901,0.254 -1.312,0.501 -0.411,0.247 -0.791,0.556 -1.134,0.935 -0.348,0.377 -0.664,0.815 -0.947,1.317 -0.281,0.498 -0.531,1.043 -0.742,1.639 -0.118,0.338 -0.221,0.673 -0.31,1.005 -0.089,0.332 -0.164,0.644 -0.217,0.945 -0.054,0.3 -0.096,0.579 -0.117,0.835 -0.022,0.255 -0.032,0.477 -0.027,0.656 l 2.032,0.719 c 0.006,-0.515 0.061,-1.045 0.162,-1.579 0.096,-0.538 0.247,-1.087 0.444,-1.647 0.396,-1.116 0.916,-1.901 1.562,-2.358 0.647,-0.458 1.408,-0.532 2.284,-0.223 z m 1.195,2.93 c 0.089,-0.251 0.206,-0.476 0.35,-0.68 0.139,-0.201 0.296,-0.38 0.46,-0.535 0.167,-0.152 0.335,-0.285 0.507,-0.394 0.171,-0.109 0.335,-0.193 0.495,-0.258 l 4.55,1.61 c 0.221,0.381 0.368,0.801 0.439,1.27 0.073,0.466 0.034,0.92 -0.114,1.364 -0.055,0.155 -0.136,0.312 -0.232,0.472 -0.099,0.155 -0.23,0.306 -0.389,0.448 -0.162,0.137 -0.35,0.259 -0.572,0.358 -0.219,0.1 -0.476,0.164 -0.774,0.195 -0.293,0.03 -0.629,0.019 -1.006,-0.033 -0.375,-0.048 -0.798,-0.157 -1.256,-0.319 -0.513,-0.181 -0.952,-0.393 -1.322,-0.633 -0.366,-0.243 -0.659,-0.512 -0.875,-0.807 -0.213,-0.297 -0.346,-0.617 -0.394,-0.962 -0.048,-0.344 -0.004,-0.708 0.133,-1.096 z m -1.749,-52.856 13.785,-5.715 -1.512,-3.647 c -0.134,-0.323 -0.28,-0.646 -0.439,-0.972 -0.159,-0.321 -0.326,-0.635 -0.497,-0.936 -0.171,-0.296 -0.347,-0.581 -0.529,-0.851 -0.179,-0.272 -0.362,-0.514 -0.549,-0.728 -0.537,-0.64 -1.122,-1.155 -1.753,-1.553 -0.636,-0.399 -1.298,-0.677 -2.001,-0.83 -0.7,-0.159 -1.425,-0.197 -2.176,-0.112 -0.751,0.08 -1.518,0.284 -2.3,0.607 -0.741,0.308 -1.403,0.681 -1.986,1.113 -0.579,0.432 -1.067,0.932 -1.463,1.489 -0.395,0.559 -0.693,1.181 -0.89,1.86 -0.196,0.683 -0.279,1.425 -0.248,2.233 0.019,0.675 0.13,1.409 0.329,2.196 0.199,0.787 0.488,1.645 0.873,2.572 z m 0.637,-4.438 c -0.612,-1.477 -0.89,-2.714 -0.832,-3.716 0.062,-0.885 0.359,-1.66 0.899,-2.325 0.536,-0.667 1.343,-1.223 2.42,-1.67 0.565,-0.234 1.098,-0.381 1.603,-0.446 0.505,-0.065 0.982,-0.054 1.432,0.036 0.451,0.085 0.872,0.245 1.266,0.469 0.391,0.228 0.755,0.518 1.094,0.869 0.312,0.327 0.606,0.717 0.873,1.17 0.269,0.453 0.524,0.978 0.772,1.576 l 0.461,1.111 -9.557,3.963 z m -14.133,-35.51 -4.847,-4.928 4.38,-4.308 -1.917,-1.948 -10.638,10.462 1.917,1.949 4.627,-4.552 4.846,4.93 -4.627,4.551 1.916,1.948 10.64,-10.462 -1.917,-1.949 z m -34.445,-19.309 c 0.117,-0.848 0.197,-1.454 0.24,-1.819 0.043,-0.362 0.127,-1.111 0.254,-2.247 l 0.83,-7.872 -2.586,-1.287 -1.431,15.958 2.196,1.094 11.873,-10.757 -2.604,-1.297 -5.783,5.404 c -0.829,0.786 -1.377,1.303 -1.639,1.557 -0.266,0.253 -0.702,0.683 -1.309,1.287 z M 302.432,194.71 c 0.295,-0.039 0.601,-0.065 0.912,-0.08 0.312,-0.014 0.603,-0.005 0.879,0.028 0.295,0.033 0.551,0.096 0.774,0.194 0.22,0.095 0.399,0.233 0.539,0.414 0.142,0.181 0.237,0.406 0.292,0.674 0.051,0.266 0.056,0.584 0.014,0.954 l -0.159,1.408 -2.982,-0.34 -0.245,2.16 2.982,0.339 -0.975,8.579 2.625,0.298 0.974,-8.579 1.82,0.206 0.245,-2.158 -1.819,-0.207 0.144,-1.274 c 0.085,-0.753 0.053,-1.412 -0.094,-1.98 -0.149,-0.569 -0.393,-1.05 -0.728,-1.44 -0.338,-0.395 -0.751,-0.705 -1.243,-0.931 -0.492,-0.22 -1.035,-0.366 -1.633,-0.434 -0.37,-0.042 -0.741,-0.053 -1.115,-0.035 -0.369,0.024 -0.697,0.063 -0.972,0.124 l -0.235,2.08" /></g></svg>